<svg id="Livello_1" data-name="Livello 1" xmlns="http://www.w3.org/2000/svg" viewBox="0 0 372.16 68.15"><title>Camere di commercio d&amp;apos;Italia</title><path d="M52.43,44.64a5.39,5.39,0,0,1,2.66.72l1.72-3a8.62,8.62,0,0,0-4.38-1.18,8.71,8.71,0,1,0,0,17.42,8.53,8.53,0,0,0,4.33-1.15l-1.7-3a5.29,5.29,0,1,1-2.63-9.87Z" transform="translate(-17.03 -15.91)" fill="#fff"/><path d="M73.45,44.64a5.36,5.36,0,0,1,2.66.72l1.73-3a8.71,8.71,0,1,0,0,15.09l-1.71-3a5.28,5.28,0,1,1-2.63-9.87Z" transform="translate(-17.03 -15.91)" fill="#fff"/><path d="M76.65,34.64a8.67,8.67,0,0,0-4.34,1.15l1.71,3a5.28,5.28,0,1,1,2.63,9.87A5.36,5.36,0,0,1,74,47.92l-1.73,3a8.71,8.71,0,1,0,4.39-16.24Z" transform="translate(-17.03 -15.91)" fill="#fff"/><path d="M59.73,64.65a5.28,5.28,0,0,1,7.21,1.95,5.12,5.12,0,0,1,.72,2.65l3.42,0a8.8,8.8,0,0,0-1.16-4.4,8.72,8.72,0,0,0-15.1,8.72A8.76,8.76,0,0,0,58,76.76l1.72-3a5.32,5.32,0,0,1-2.45-5.94A5.34,5.34,0,0,1,59.73,64.65Z" transform="translate(-17.03 -15.91)" fill="#fff"/><path d="M74,61.17l-1.72,3a5.41,5.41,0,0,1,1.92,1.91,5.29,5.29,0,1,1-9.87,2.63l-3.42,0a8.69,8.69,0,0,0,8.72,8.75A8.59,8.59,0,0,0,74,76.25a8.72,8.72,0,0,0,3.19-11.9A8.86,8.86,0,0,0,74,61.17Z" transform="translate(-17.03 -15.91)" fill="#fff"/><path d="M42.75,64.71a5.2,5.2,0,0,1,2.47,3.2,5.32,5.32,0,0,1-.53,4,5.12,5.12,0,0,1-2,1.93l1.71,3A8.74,8.74,0,0,0,48.53,67a8.64,8.64,0,0,0-4.06-5.3A8.71,8.71,0,0,0,31.4,69.26h3.42a5.21,5.21,0,0,1,.72-2.64A5.28,5.28,0,0,1,42.75,64.71Z" transform="translate(-17.03 -15.91)" fill="#fff"/><path d="M48.79,78a5.3,5.3,0,0,1-7.22,1.94,5.29,5.29,0,0,1,0-9.17l-1.7-3A8.6,8.6,0,0,0,36.66,71,8.72,8.72,0,0,0,44.2,84.05a8.31,8.31,0,0,0,2.26-.3,8.64,8.64,0,0,0,5.3-4.06,8.77,8.77,0,0,0,1.16-4.33H49.5A5.2,5.2,0,0,1,48.79,78Z" transform="translate(-17.03 -15.91)" fill="#fff"/><path d="M28.93,55.31h0a5.34,5.34,0,0,1-2.65-.71l-1.73,3a8.67,8.67,0,0,0,4.38,1.18h0A8.74,8.74,0,0,0,37.65,50a8.73,8.73,0,0,0-8.72-8.71,8.62,8.62,0,0,0-4.33,1.14l1.71,3a5.28,5.28,0,0,1,6.36,8.32A5.21,5.21,0,0,1,28.93,55.31Z" transform="translate(-17.03 -15.91)" fill="#fff"/><path d="M25.74,61.89a5.29,5.29,0,0,1,0-10.57h0a5.39,5.39,0,0,1,2.66.72l1.73-3a8.77,8.77,0,0,0-4.39-1.17h0a8.71,8.71,0,1,0,4.34,16.27l-1.71-3A5.33,5.33,0,0,1,25.74,61.89Z" transform="translate(-17.03 -15.91)" fill="#fff"/><path d="M42.66,35.31a5.18,5.18,0,0,1-4,.52,5.27,5.27,0,0,1-3.22-2.47,5.2,5.2,0,0,1-.7-2.65l-3.43,0a8.73,8.73,0,0,0,1.17,4.4,8.52,8.52,0,0,0,5.29,4,8,8,0,0,0,2.27.32A8.7,8.7,0,0,0,44.4,23.21l-1.72,3A5.16,5.16,0,0,1,44.6,28.1,5.28,5.28,0,0,1,42.66,35.31Z" transform="translate(-17.03 -15.91)" fill="#fff"/><path d="M28.36,38.79l1.72-3a5.28,5.28,0,1,1,7.23-7.2A5.4,5.4,0,0,1,38,31.27l3.42,0a8.7,8.7,0,1,0-13.08,7.5Z" transform="translate(-17.03 -15.91)" fill="#fff"/><path d="M59.64,35.25A5.18,5.18,0,0,1,57.18,32a5.24,5.24,0,0,1,2.47-5.94L58,23.1a8.8,8.8,0,0,0-3.22,3.22,8.63,8.63,0,0,0-.88,6.61,8.72,8.72,0,0,0,16,2.1A8.64,8.64,0,0,0,71,30.7H67.56a5.26,5.26,0,0,1-7.92,4.56Z" transform="translate(-17.03 -15.91)" fill="#fff"/><path d="M53.6,22a5.28,5.28,0,0,1,7.22-1.92,5.17,5.17,0,0,1,2.47,3.2,5.25,5.25,0,0,1-.53,4,5.12,5.12,0,0,1-1.95,1.94l1.7,3A8.53,8.53,0,0,0,65.73,29a8.72,8.72,0,1,0-15.1-8.71,8.83,8.83,0,0,0-1.17,4.32H52.9A5.23,5.23,0,0,1,53.6,22Z" transform="translate(-17.03 -15.91)" fill="#fff"/><rect x="88.67" y="6.84" width="1.71" height="54.47" fill="#fff"/><path d="M126.74,38.38c0-5.05,3.12-8.33,8.38-8.33a10.45,10.45,0,0,1,4.75.93l-.7,1.86a11.12,11.12,0,0,0-4-.71c-3.22,0-5.93,1.75-5.93,6s2.81,6.27,6.36,6.27a11.82,11.82,0,0,0,3.74-.57l.56,1.91a12.13,12.13,0,0,1-4.68.79C129.75,46.56,126.74,43.3,126.74,38.38Z" transform="translate(-17.03 -15.91)" fill="#fff"/><path d="M146.45,30.28h3.15l5.71,16H152.7l-1.94-5.6h-6l-2.2,5.6H140Zm3.7,8.53-2.25-6.9-2.49,6.9Z" transform="translate(-17.03 -15.91)" fill="#fff"/><path d="M157.07,30.28h3.15L165.4,44.5l5.87-14.22h3v16h-2.42V36.93l.09-2.85h-.07l-4.91,12.21h-3.17l-4.3-12.23h-.09l.16,2.65v9.58h-2.45Z" transform="translate(-17.03 -15.91)" fill="#fff"/><path d="M178,30.28h9.42v1.94h-7V37.3h6.48v1.9h-6.48v5.12h7.5v2H178Z" transform="translate(-17.03 -15.91)" fill="#fff"/><path d="M198.47,43.07l-2.21-3a8.05,8.05,0,0,1-1.32.09h-1.88v6.12h-2.47v-16h5.53c3.22,0,5.48,1.51,5.48,4.84a4.51,4.51,0,0,1-2.9,4.37l2,2.61a6.83,6.83,0,0,0,3.54,2.58l-.55,1.88C201.42,46.35,200,45,198.47,43.07Zm-3.39-4.78c2.42,0,4-.81,4-3s-1.09-3-3.42-3h-2.56v6.07Z" transform="translate(-17.03 -15.91)" fill="#fff"/><path d="M205.87,30.28h9.42v1.94h-7V37.3h6.48v1.9h-6.48v5.12h7.5v2h-9.95Z" transform="translate(-17.03 -15.91)" fill="#fff"/><path d="M223.37,30.28h4.74c5.27,0,9.08,2.4,9.08,7.94s-3.47,8.07-8.95,8.07h-4.87Zm5.12,14c4,0,6.2-2,6.2-5.85,0-4.23-2.51-6.22-6.65-6.22h-2.22V44.32Z" transform="translate(-17.03 -15.91)" fill="#fff"/><path d="M239.9,30.28h2.44v16H239.9Z" transform="translate(-17.03 -15.91)" fill="#fff"/><path d="M250,38.38c0-5.05,3.12-8.33,8.38-8.33a10.42,10.42,0,0,1,4.75.93l-.7,1.86a11.12,11.12,0,0,0-4-.71c-3.21,0-5.93,1.75-5.93,6s2.81,6.27,6.36,6.27a11.82,11.82,0,0,0,3.74-.57l.56,1.91a12.09,12.09,0,0,1-4.68.79C253,46.56,250,43.3,250,38.38Z" transform="translate(-17.03 -15.91)" fill="#fff"/><path d="M264.32,38.25c0-5,3.26-8.2,8.34-8.2,5.34,0,8,3.53,8,8.24,0,5-3.08,8.27-8.38,8.27S264.32,43.21,264.32,38.25Zm13.88,0c0-3.56-1.94-6.25-5.68-6.25s-5.75,2.69-5.75,6.2,1.79,6.35,5.59,6.35C276.41,44.57,278.2,41.82,278.2,38.27Z" transform="translate(-17.03 -15.91)" fill="#fff"/><path d="M283.38,30.28h3.15l5.19,14.22,5.86-14.22h3v16h-2.43V36.93l.09-2.85h-.06l-4.92,12.21h-3.17l-4.3-12.23h-.09l.16,2.65v9.58h-2.45Z" transform="translate(-17.03 -15.91)" fill="#fff"/><path d="M304.3,30.28h3.15l5.18,14.22,5.87-14.22h3v16H319V36.93l.09-2.85h-.07l-4.91,12.21H311l-4.3-12.23h-.09l.15,2.65v9.58H304.3Z" transform="translate(-17.03 -15.91)" fill="#fff"/><path d="M325.22,30.28h9.42v1.94h-7V37.3h6.48v1.9h-6.48v5.12h7.5v2h-9.94Z" transform="translate(-17.03 -15.91)" fill="#fff"/><path d="M345.7,43.07l-2.22-3a7.85,7.85,0,0,1-1.31.09h-1.88v6.12h-2.47v-16h5.53c3.21,0,5.48,1.51,5.48,4.84a4.53,4.53,0,0,1-2.9,4.37l2,2.61a6.84,6.84,0,0,0,3.53,2.58l-.54,1.88C348.65,46.35,347.2,45,345.7,43.07Zm-3.39-4.78c2.42,0,4-.81,4-3s-1.09-3-3.42-3h-2.56v6.07Z" transform="translate(-17.03 -15.91)" fill="#fff"/><path d="M352.08,38.38c0-5.05,3.13-8.33,8.38-8.33a10.47,10.47,0,0,1,4.76.93l-.7,1.86a11.12,11.12,0,0,0-4-.71c-3.22,0-5.94,1.75-5.94,6s2.81,6.27,6.37,6.27a11.75,11.75,0,0,0,3.73-.57l.57,1.91a12.15,12.15,0,0,1-4.69.79C355.1,46.56,352.08,43.3,352.08,38.38Z" transform="translate(-17.03 -15.91)" fill="#fff"/><path d="M367.68,30.28h2.45v16h-2.45Z" transform="translate(-17.03 -15.91)" fill="#fff"/><path d="M372.84,38.25c0-5,3.26-8.2,8.33-8.2,5.35,0,8,3.53,8,8.24,0,5-3.08,8.27-8.38,8.27S372.84,43.21,372.84,38.25Zm13.88,0c0-3.56-1.94-6.25-5.68-6.25-3.9,0-5.75,2.69-5.75,6.2s1.79,6.35,5.59,6.35C384.93,44.57,386.72,41.82,386.72,38.27Z" transform="translate(-17.03 -15.91)" fill="#fff"/><path d="M127.76,54h4.73c5.27,0,9.08,2.41,9.08,8s-3.47,8.06-8.95,8.06h-4.86Zm5.11,14c4,0,6.21-2,6.21-5.84,0-4.23-2.52-6.22-6.66-6.22H130.2V68.08Z" transform="translate(-17.03 -15.91)" fill="#fff"/><path d="M143.67,55.11V53h2v1.29A6.34,6.34,0,0,1,144.62,58H143A7.29,7.29,0,0,0,143.67,55.11Z" transform="translate(-17.03 -15.91)" fill="#fff"/><path d="M148.11,54h2.44v16h-2.44Z" transform="translate(-17.03 -15.91)" fill="#fff"/><path d="M157.59,56h-5.34V54h13.13v2H160v14h-2.45Z" transform="translate(-17.03 -15.91)" fill="#fff"/><path d="M170.2,54h3.15l5.7,16h-2.6l-1.95-5.59h-6l-2.2,5.59h-2.51Zm3.69,8.54-2.24-6.9-2.49,6.9Z" transform="translate(-17.03 -15.91)" fill="#fff"/><path d="M180.82,54h2.44V68h7v2h-9.39Z" transform="translate(-17.03 -15.91)" fill="#fff"/><path d="M191.89,54h2.44v16h-2.44Z" transform="translate(-17.03 -15.91)" fill="#fff"/><path d="M202.19,54h3.14l5.71,16h-2.6l-1.95-5.59h-6.05l-2.19,5.59h-2.52Zm3.69,8.54-2.24-6.9-2.5,6.9Z" transform="translate(-17.03 -15.91)" fill="#fff"/></svg>