<svg id="logoClaim" data-name="Livello 1" xmlns="http://www.w3.org/2000/svg" viewBox="0 0 189.55 50">
<title>DIRE Deposito e Istanze Registro Imprese</title>
<path d="M95.91,16.5v2.25h-2V16.5Z
m14.64,0v2.25h-1.93V16.5Z
M124.74,23c-2.23,0-3.43,1.21-3.44,4.33H128C128,24.15,127,23,124.74,23Z
M46.59,23c-2.24,0-3.43,1.21-3.46,4.33h6.7C49.83,24.15,48.83,23,46.59,23Z
m162.57,0c-2.23,0-3.42,1.21-3.45,4.33h6.7C212.41,24.15,211.41,23,209.16,23Z
M31.85,18.5H27.47V32.82h4.38c3.71,0,4.56-3.55,4.56-7.41S35.56,18.5,31.85,18.5Z
m28.39,4.62a8.39,8.39,0,0,0-3.53,1v8.68a17.13,17.13,0,0,0,2.78.29c2.84,0,3.75-1.47,3.75-5.18C63.24,24.41,62.14,23.12,60.24,23.12Z
m13-.05c-2.76,0-3.54,1.29-3.54,4.87s.5,5.18,3.54,5.18,3.55-1.52,3.55-5.18h0C76.81,24.36,76,23.07,73.28,23.07Z
m99.83,5.05-3.81.36c-1.56.16-2.19.9-2.19,2.32s.66,2.37,2,2.37a13.29,13.29,0,0,0,4-.8Z
m-32.2-11.41V34.5h-2V16.71Z
m60.56,4.95v1.72l-7.2,9.43h7.2V34.5h-9.56V32.78l7.22-9.43h-7.22V21.66Z
m-16.64-.26c3.55,0,4.35,1.75,4.35,6.33V34.5h-1.91V27.76c0-3.4-.39-4.67-2.78-4.67a8.83,8.83,0,0,0-3.63,1V34.5h-2V21.66h1.92v.9A9.64,9.64,0,0,1,184.83,21.4Z
m-88.92.26V34.5h-2V21.66Z
m14.64,0V34.5h-1.93V21.66Z
m-78.7-4.95c5.18,0,6.59,3.61,6.59,8.66s-1.34,9.16-6.59,9.16l-6.36,0V16.71Z
m54,4.66a33.17,33.17,0,0,1,4.66.49l0,1.64A42.9,42.9,0,0,0,86,23.08c-1.59,0-2.8.44-2.8,2,0,1.21.62,1.55,3.35,2,3.22.54,4.43,1.19,4.43,3.68,0,3-1.91,4-5,4a36.21,36.21,0,0,1-4.54-.49l.11-1.67c1.4.22,2.82.36,4.25.44C87.9,33,89,32.57,89,30.82c0-1.34-.66-1.67-3.47-2.11s-4.31-1-4.31-3.58C81.24,22.3,83.54,21.37,85.89,21.37Z
m63,0a33.47,33.47,0,0,1,4.67.49l-.06,1.64a42.52,42.52,0,0,0-4.5-.42c-1.61,0-2.81.44-2.81,2,0,1.21.62,1.55,3.34,2,3.22.54,4.44,1.19,4.44,3.68,0,3-1.91,4-5,4a36.1,36.1,0,0,1-4.52-.49l.09-1.67s2.95.44,4.25.44c2.11,0,3.25-.47,3.25-2.22,0-1.34-.66-1.67-3.47-2.11s-4.31-1-4.31-3.58C144.24,22.3,146.54,21.37,148.88,21.37Z
m-24.11,0c3.28,0,5.18,1.8,5.18,6l-.11,1.46h-8.5c0,2.76.86,4.2,3.38,4.2,1.91,0,4.71-.2,4.71-.2l.06,1.52a44.15,44.15,0,0,1-5,.41c-3.83,0-5.11-2.24-5.11-6.62C119.38,23.28,121.51,21.4,124.77,21.4Z
m84.42,0c3.42,0,5.17,1.8,5.17,6l-.09,1.46h-8.5c0,2.76.84,4.2,3.36,4.2,1.92,0,4.72-.2,4.72-.2l.06,1.52a44.15,44.15,0,0,1-5,.41c-3.83,0-5.11-2.24-5.11-6.62C203.8,23.28,205.93,21.4,209.19,21.4Z
m-162.63,0c3.28,0,5.17,1.8,5.17,6l-.1,1.46h-8.5c0,2.76.85,4.2,3.37,4.2,2,0,4.77-.2,4.77-.2v1.52a44.15,44.15,0,0,1-5,.41c-3.84,0-5.1-2.24-5.1-6.62C41.17,23.28,43.28,21.4,46.56,21.4Z
m26.74,0c4.07,0,5.51,2.1,5.51,6.54,0,4.69-1.16,6.85-5.51,6.85s-5.51-2.16-5.51-6.85C67.79,23.51,69.23,21.4,73.3,21.4Z
m97.5,0c2.92,0,4.16,1.34,4.16,4.15l.09,6.59c0,.75.67,1,1.5,1.13l-.08,1.52a3.94,3.94,0,0,1-3.06-1,13.27,13.27,0,0,1-4.64,1c-2.34,0-3.64-1.34-3.64-3.94s1.3-3.55,4-3.81l4-.39v-1.1c0-1.81-.78-2.45-2.33-2.45-1.81,0-4.87.33-4.87.33L165.8,22A31.25,31.25,0,0,1,170.8,21.4Z
m-68.65-3.67v3.94h4.09v1.67h-4.09V29.5c0,2.8.18,3.6,1.86,3.6.72,0,2.29-.15,2.29-.15l.13,1.59a21.36,21.36,0,0,1-2.63.29c-2.65,0-3.56-1-3.56-4.72V23.34H98.41V21.67h1.83V17.73Z
m57.34,0v3.94h4.09v1.67h-4.09V29.5c0,2.8.19,3.6,1.86,3.6.72,0,2.3-.15,2.3-.15l.12,1.59a21.2,21.2,0,0,1-2.62.29c-2.66,0-3.57-1-3.57-4.72V23.34h-1.83V21.67h1.83V17.73Z
M60.55,21.4c3.24,0,4.66,2,4.66,6.54,0,5-1.65,6.85-5.63,6.85a16.23,16.23,0,0,1-2.87-.28v5.74H54.78V21.66h1.9v.92A8.79,8.79,0,0,1,60.55,21.4Z
m11,20.87v3.55h-3.5V42.27Z
m57.83,0v3.55h-3.5V42.27Z
m-97.3,3.6H28.83V51.5h3.33c1.8,0,2.53-1.25,2.53-2.81A2.53,2.53,0,0,0,32.11,45.87Z
m177,4.14c-1.64,0-2.24.81-2.27,2.79h4.5C211.3,50.69,210.71,50,209.07,50Z
m-25.6,0c-1.64,0-2.25.81-2.28,2.79h4.52C185.71,50.69,185.11,50,183.47,50Z
M46,50c-1.64,0-2.24.81-2.27,2.79H48.2C48.2,50.69,47.6,50,46,50Z
m13.19-.07c-1.43,0-2,.68-2,1.9s.59,1.93,2,1.93,2-.7,2-1.93S60.58,49.94,59.15,49.94Z
m101.12.37a6.87,6.87,0,0,0-2.28.51v6.85s1.17.15,1.91.15c2.09,0,2.64-1.14,2.64-3.91S161.65,50.31,160.27,50.31Z
m-48.65-.16c-1.93,0-2.46,1.3-2.46,3.83s.53,3.89,2.46,3.89,2.46-1.37,2.46-3.89S113.55,50.15,111.62,50.15Z
m-40-2.66v13h-3.5v-13Z
m57.83,0v13h-3.5v-13Z
m46.92-.31V50.7a34.23,34.23,0,0,0-4.15,1.1v8.7h-3.49v-13h3.47v1.38A16,16,0,0,1,176.33,47.18Z
m-72.09,0V50.7a33.38,33.38,0,0,0-4.15,1.1v8.7H96.61v-13h3.45v1.38A16.32,16.32,0,0,1,104.24,47.18Z
m38.2,1.23a11.72,11.72,0,0,1,4.37-1.23c3.56,0,4.6,2.09,4.6,6.29v7h-3.5v-7c0-2-.25-3.26-1.82-3.26a8.76,8.76,0,0,0-2.43.5s.1,1.83.1,2.86v6.9h-3.5V53.79c0-2.34-.21-3.52-1.82-3.52a7.32,7.32,0,0,0-2.32.47V60.5h-3.5v-13h3.46v.73a8.1,8.1,0,0,1,3.09-1A4.15,4.15,0,0,1,142.44,48.41Z
M32.11,42.79c4,0,6.26,1.8,6.26,5.84a5.63,5.63,0,0,1-2.61,5.12l2.53,6.78H34.35l-2-6H28.83V60.5h-3.6V42.79Z
m47,4.41a34.5,34.5,0,0,1,5.06.65l0,2.9s-3.23-.42-4.74-.42-1.83.34-1.83,1,.5.73,2.89,1.18c3,.54,4.09,1.43,4.09,4.06,0,3.06-2,4.23-5.23,4.23a32.09,32.09,0,0,1-5-.63l.11-2.92s3.23.42,4.56.42c1.67,0,2.11-.34,2.11-1s-.28-.83-2.68-1.22c-2.82-.47-4.31-1.15-4.31-4C74.14,48.45,76.44,47.2,79.14,47.2Z
M196,47.2a34.46,34.46,0,0,1,5.07.65l0,2.9s-3.24-.42-4.74-.42-1.83.34-1.83,1,.5.73,2.89,1.18c3,.54,4.1,1.43,4.1,4.06,0,3.06-2,4.23-5.24,4.23a32.09,32.09,0,0,1-5-.63l.11-2.92s3.22.42,4.55.42c1.67,0,2.11-.34,2.11-1s-.27-.83-2.67-1.22c-2.83-.47-4.32-1.15-4.32-4C191,48.45,193.3,47.2,196,47.2Z
m-12.56,0c3.78,0,5.69,2,5.69,5.9l-.22,2.44h-7.67c0,1.57.76,2.27,2.64,2.27,2.14,0,4.83-.27,4.83-.27v2.58a27.6,27.6,0,0,1-5.42.73c-3.94,0-5.61-2-5.61-6.65S179.68,47.16,183.44,47.16Z
M46,47.16c3.76,0,5.69,2,5.69,5.9l-.26,2.42H43.74c0,1.57.75,2.27,2.63,2.27,2.14,0,4.83-.25,4.83-.25l0,2.58a27.8,27.8,0,0,1-5.43.73c-3.93,0-5.6-2-5.6-6.65S42.22,47.16,46,47.16Z
m163.12,0c3.81,0,5.67,2,5.67,5.9l-.25,2.42h-7.66c0,1.57.75,2.27,2.63,2.27,2.14,0,4.81-.25,4.81-.25l.06,2.58a27.6,27.6,0,0,1-5.42.73c-3.95,0-5.61-2-5.61-6.65S205.29,47.16,209.1,47.16Z
m-97.48,0c4.54,0,6,2.79,6,6.81s-1.46,6.86-6,6.86-6-2.84-6-6.86S107.08,47.17,111.62,47.17Z
m-20.47-3.3V47.5h3.21v3H91.13v5.67c0,1.08.09,1.58,1.1,1.58.72,0,2,0,2,0l.15,2.79a16.94,16.94,0,0,1-2.65.39c-3.16,0-4.07-1.2-4.07-5V50.5H86.12v-3h1.54V43.87Z
M57.66,61.05a1.89,1.89,0,0,0-.74,1.45c0,.76.91,1.12,2.86,1.12,1.7,0,2.64-.36,2.64-1.3S61.9,61.23,60,61.2A22.76,22.76,0,0,1,57.66,61.05Z
M161,47.2c3.44,0,5.14,1.88,5.14,6.73,0,5.56-1.93,6.94-5.92,6.94a15.63,15.63,0,0,1-2.17-.21V66h-3.5l0-18.53H158v.7A7.21,7.21,0,0,1,161,47.2Z
m-101.87,0a14.68,14.68,0,0,1,2.63.34l4.2-.13v2.79l-2-.16a3.48,3.48,0,0,1,.58,1.77c0,3.65-1.93,4.59-5.52,4.59a7.6,7.6,0,0,1-1.06-.1,3.88,3.88,0,0,0-.26,1c0,.68.32.84,2.53.86,4.44,0,5.69,1,5.69,3.94,0,3.18-2.82,4.38-6.18,4.38-3.72,0-6.2-.68-6.2-3.6,0-1.2.58-2.09,1.88-3.1a2.44,2.44,0,0,1-1-2,5.81,5.81,0,0,1,1-2.08,4.18,4.18,0,0,1-1.77-3.89C53.62,48.47,56,47.22,59.1,47.22Z" 
transform="translate(-25.23 -16.5)" 
fill="#ffffff"/>
</svg>