<?xml version="1.0" encoding="utf-8"?>
<!-- Generator: Adobe Illustrator 23.0.0, SVG Export Plug-In . SVG Version: 6.00 Build 0)  -->
<svg version="1.1" id="Livello_1" xmlns="http://www.w3.org/2000/svg" xmlns:xlink="http://www.w3.org/1999/xlink" x="0px" y="0px"
	 viewBox="0 0 24 24" style="enable-background:new 0 0 24 24;" xml:space="preserve">
<style type="text/css">
	.st0{display:none;}
	.st1{fill:#FFFFFF;}
</style>
<path class="st0" d="M9.7,10.4V7.8c0-1,0.8-1.7,1.7-1.7s1.7,0.8,1.7,1.7v2.6c0.8-0.6,1.4-1.5,1.4-2.6c0-1.7-1.4-3.1-3.1-3.1
	S8.4,6.1,8.4,7.8C8.4,8.9,8.9,9.9,9.7,10.4z"/>
<g>
	<g>
		<path class="st1" d="M17.1,13.6l-3.5-1.8c-0.1-0.1-0.3-0.1-0.4-0.1h-0.6V7.1c0-0.6-0.5-1.2-1.2-1.2s-1.2,0.5-1.2,1.2v8.3
			c-2.8-0.6-2.7-0.6-2.8-0.6c-0.2,0-0.5,0.1-0.6,0.3l-0.6,0.6l3.8,3.8c0.2,0.2,0.5,0.3,0.8,0.3h5.3c0.6,0,1-0.4,1.1-1l0.6-4.1
			c0-0.1,0-0.1,0-0.2C17.8,14.2,17.5,13.7,17.1,13.6z"/>
	</g>
	<g>
		<path class="st1" d="M11.5,5.5h-0.2c-0.6,0-1-0.5-1-1V4.2c0-0.6,0.5-1,1-1h0.2c0.6,0,1,0.5,1,1v0.2C12.6,5,12.1,5.5,11.5,5.5z"/>
	</g>
	<g>
		<path class="st1" d="M9.7,6.4c-0.1,0-0.2,0-0.3-0.1C8.9,5.7,8.7,5,8.7,4.3c0-1.5,1.2-2.8,2.8-2.8s2.8,1.2,2.8,2.8
			c0,0.7-0.3,1.4-0.8,1.9c-0.2,0.2-0.5,0.2-0.6,0c-0.2-0.2-0.2-0.5,0-0.6c0.3-0.4,0.5-0.8,0.5-1.3c0-1-0.8-1.9-1.9-1.9
			S9.5,3.3,9.5,4.3c0,0.5,0.2,0.9,0.5,1.3c0.2,0.2,0.2,0.5,0,0.6C10,6.3,9.8,6.4,9.7,6.4z"/>
	</g>
	<g>
		<path class="st1" d="M16.6,22.4h-6.2c-0.2,0-0.4-0.2-0.4-0.4v-1.3c0-0.2,0.2-0.4,0.4-0.4h6.2c0.2,0,0.4,0.2,0.4,0.4V22
			C17,22.2,16.8,22.4,16.6,22.4z"/>
	</g>
</g>
</svg>
