<?xml version="1.0" encoding="utf-8"?>
<!-- Generator: Adobe Illustrator 23.0.0, SVG Export Plug-In . SVG Version: 6.00 Build 0)  -->
<svg version="1.1" xmlns="http://www.w3.org/2000/svg" xmlns:xlink="http://www.w3.org/1999/xlink" x="0px" y="0px"
	 viewBox="0 0 48 48" style="enable-background:new 0 0 48 48;" xml:space="preserve">
<style type="text/css">
	.st0{display:none;}
	.st1{display:inline;fill:#373F45;}
	.st2{fill:#FFFFFF;}
</style>
<g id="Livello_2" class="st0">
	
		<image style="display:inline;overflow:visible;" width="1920" height="1080" xlink:href="939B8672.jpg"  transform="matrix(1 0 0 1 52.0638 -373.5107)">
	</image>
	<rect x="-14" y="-3.6" class="st1" width="63.8" height="57.4"/>
</g>
<g id="Livello_1">
	<path class="st2" d="M24,25.1c3.2,0,5.8-2.6,5.8-5.8v-3.7c0-3.2-2.6-5.8-5.8-5.8s-5.8,2.6-5.8,5.8v3.7C18.2,22.5,20.8,25.1,24,25.1
		z M19.2,15.5c0-2.6,2.1-4.8,4.8-4.8s4.8,2.1,4.8,4.8v3.7c0,2.6-2.1,4.8-4.8,4.8s-4.8-2.1-4.8-4.8V15.5z"/>
	<g>
		<path class="st2" d="M45.8,32.9c-0.2-0.3-0.5-0.5-0.8-0.8c-1.6-1.5-3.8-2.4-6.1-2.4c-5,0-9.1,4.1-9.1,9.1c0,2.4,0.9,4.5,2.4,6.1
			c0.2,0.3,0.5,0.5,0.8,0.8c1.6,1.4,3.7,2.2,6,2.2c5,0,9.1-4.1,9.1-9.1C48,36.5,47.2,34.5,45.8,32.9z M42.2,39.3h-2.9v2.9h-1v-2.9
			h-2.9v-1h2.9v-2.9h1v2.9h2.9V39.3z"/>
	</g>
	<g>
		<path class="st2" d="M45.8,32.9c-0.2-0.3-0.5-0.5-0.8-0.8c-1.6-1.5-3.8-2.4-6.1-2.4c-5,0-9.1,4.1-9.1,9.1c0,2.4,0.9,4.5,2.4,6.1
			c0.2,0.3,0.5,0.5,0.8,0.8c1.6,1.4,3.7,2.2,6,2.2c5,0,9.1-4.1,9.1-9.1C48,36.5,47.2,34.5,45.8,32.9z M42.2,39.3h-2.9v2.9h-1v-2.9
			h-2.9v-1h2.9v-2.9h1v2.9h2.9V39.3z"/>
	</g>
	<path class="st2" d="M31.5,45.5c-0.1-0.1-0.2-0.2-0.2-0.3c-2.3,0.8-4.7,1.2-7.3,1.2C11.6,46.5,1.5,36.4,1.5,24
		C1.5,11.6,11.6,1.5,24,1.5S46.5,11.6,46.5,24c0,2.5-0.4,5-1.2,7.2c0.1,0.1,0.2,0.1,0.3,0.2c0.2,0.2,0.4,0.4,0.5,0.6
		c0.9-2.5,1.4-5.2,1.4-8C47.5,11,37,0.5,24,0.5S0.5,11,0.5,24C0.5,37,11,47.5,24,47.5c2.8,0,5.5-0.5,8-1.4
		C31.9,45.9,31.7,45.7,31.5,45.5z"/>
	<path class="st2" d="M32.2,31.7c0.2-0.2,0.5-0.4,0.8-0.6c-2.1-2.6-5.3-4.3-8.9-4.3c-6.3,0-11.5,5.1-11.5,11.5h1
		c0-5.8,4.7-10.5,10.5-10.5C27.3,27.8,30.2,29.3,32.2,31.7z"/>
</g>
</svg>
