<?xml version="1.0" encoding="utf-8"?>
<!-- Generator: Adobe Illustrator 23.0.0, SVG Export Plug-In . SVG Version: 6.00 Build 0)  -->
<svg version="1.1" xmlns="http://www.w3.org/2000/svg" xmlns:xlink="http://www.w3.org/1999/xlink" x="0px" y="0px"
	 viewBox="0 0 48 48" style="enable-background:new 0 0 48 48;" xml:space="preserve">
<style type="text/css">
	.st0{display:none;fill:#373F45;}
	.st1{fill:#FFFFFF;}
</style>
<g id="Livello_2">
	
		<image style="overflow:visible;" width="1920" height="1080" xlink:href="98A3EFE3.jpg"  transform="matrix(1 0 0 1 52.0638 -373.5107)">
	</image>
	<rect x="-14" y="-3.6" class="st0" width="63.8" height="57.4"/>
</g>
<g id="Livello_1">
	<g>
		<path class="st1" d="M24,47.5C11,47.5,0.5,37,0.5,24S11,0.5,24,0.5S47.5,11,47.5,24S37,47.5,24,47.5z M24,1.5
			C11.6,1.5,1.5,11.6,1.5,24c0,12.4,10.1,22.5,22.5,22.5c12.4,0,22.5-10.1,22.5-22.5C46.5,11.6,36.4,1.5,24,1.5z"/>
	</g>
	<g>
		<path class="st1" d="M24,26.8c-6.3,0-11.5,5.1-11.5,11.5h1c0-5.8,4.7-10.5,10.5-10.5s10.5,4.7,10.5,10.5h1
			C35.5,31.9,30.3,26.8,24,26.8z"/>
		<path class="st1" d="M24,25.1c3.2,0,5.8-2.6,5.8-5.8v-3.7c0-3.2-2.6-5.8-5.8-5.8s-5.8,2.6-5.8,5.8v3.7
			C18.2,22.5,20.8,25.1,24,25.1z M19.2,15.5c0-2.6,2.1-4.8,4.8-4.8s4.8,2.1,4.8,4.8v3.7c0,2.6-2.1,4.8-4.8,4.8s-4.8-2.1-4.8-4.8
			V15.5z"/>
	</g>
</g>
</svg>
