<?xml version="1.0" encoding="utf-8"?>
<!-- Generator: Adobe Illustrator 23.0.0, SVG Export Plug-In . SVG Version: 6.00 Build 0)  -->
<svg version="1.1" xmlns="http://www.w3.org/2000/svg" xmlns:xlink="http://www.w3.org/1999/xlink" x="0px" y="0px"
	 viewBox="0 0 48 48" style="enable-background:new 0 0 48 48;" xml:space="preserve">
<style type="text/css">
	.st0{display:none;}
	.st1{display:inline;fill:#373F45;}
	.st2{fill:#FFFFFF;}
</style>
<g id="Livello_2" class="st0">
	
		<image style="display:inline;overflow:visible;" width="1920" height="1080" xlink:href="4B21B072.jpg"  transform="matrix(1 0 0 1 52.0638 -373.5107)">
	</image>
	<rect x="-14" y="-3.6" class="st1" width="63.8" height="57.4"/>
</g>
<g id="Livello_1">
	<g>
		<path class="st2" d="M24,47.5C11,47.5,0.5,37,0.5,24S11,0.5,24,0.5S47.5,11,47.5,24S37,47.5,24,47.5z M24,1.5
			C11.6,1.5,1.5,11.6,1.5,24c0,12.4,10.1,22.5,22.5,22.5c12.4,0,22.5-10.1,22.5-22.5C46.5,11.6,36.4,1.5,24,1.5z"/>
	</g>
	<g>
		<polygon class="st2" points="17.2,15.7 22.8,10.1 22.1,9.4 15.3,16.2 22.1,23 22.8,22.3 17.2,16.7 32.7,16.7 32.7,15.7 		"/>
		<polygon class="st2" points="25.2,25.7 30.8,31.3 15.3,31.3 15.3,32.3 30.8,32.3 25.2,37.9 25.9,38.6 32.7,31.8 25.9,25 		"/>
	</g>
</g>
</svg>
